{
  "accessors": [
    {
      "bufferView": 2,
      "componentType": 5126,
      "count": 35009,
      "max": [
        15.152450561523438,
        18.359092712402344,
        7.067442893981934
      ],
      "min": [
        -0.505541980266571,
        -11.513484001159668,
        7.999999979801942e-06
      ],
      "type": "VEC3"
    },
    {
      "bufferView": 2,
      "byteOffset": 420108,
      "componentType": 5126,
      "count": 35009,
      "max": [
        1.0,
        1.0,
        1.0
      ],
      "min": [
        -1.0,
        -1.0,
        -1.0
      ],
      "type": "VEC3"
    },
    {
      "bufferView": 3,
      "componentType": 5126,
      "count": 35009,
      "max": [
        1.0,
        1.0,
        1.0,
        1.0
      ],
      "min": [
        -1.0,
        -1.0,
        -1.0,
        -1.0
      ],
      "type": "VEC4"
    },
    {
      "bufferView": 1,
      "componentType": 5126,
      "count": 35009,
      "max": [
        0.9995449781417847,
        0.9995880126953125
      ],
      "min": [
        0.000455000001238659,
        0.00041199999395757914
      ],
      "type": "VEC2"
    },
    {
      "bufferView": 0,
      "componentType": 5125,
      "count": 192000,
      "type": "SCALAR"
    },
    {
      "bufferView": 2,
      "byteOffset": 840216,
      "componentType": 5126,
      "count": 45787,
      "max": [
        6.687356948852539,
        12.353266716003418,
        4.1999969482421875
      ],
      "min": [
        0.11456699669361115,
        -6.477358818054199,
        -0.20000700652599335
      ],
      "type": "VEC3"
    },
    {
      "bufferView": 2,
      "byteOffset": 1389660,
      "componentType": 5126,
      "count": 45787,
      "max": [
        1.0,
        1.0,
        1.0
      ],
      "min": [
        -1.0,
        -1.0,
        -1.0
      ],
      "type": "VEC3"
    },
    {
      "bufferView": 3,
      "byteOffset": 560144,
      "componentType": 5126,
      "count": 45787,
      "max": [
        1.0,
        1.0,
        1.0,
        1.0
      ],
      "min": [
        -1.0,
        -1.0,
        -1.0,
        -1.0
      ],
      "type": "VEC4"
    },
    {
      "bufferView": 1,
      "byteOffset": 280072,
      "componentType": 5126,
      "count": 45787,
      "max": [
        0.9995499849319458,
        0.9995740056037903
      ],
      "min": [
        0.00044999999227002263,
        0.00042600001324899495
      ],
      "type": "VEC2"
    },
    {
      "bufferView": 0,
      "byteOffset": 768000,
      "componentType": 5125,
      "count": 192000,
      "type": "SCALAR"
    },
    {
      "bufferView": 2,
      "byteOffset": 1939104,
      "componentType": 5126,
      "count": 18276,
      "max": [
        7.65670108795166,
        13.491950988769531,
        6.7670159339904785
      ],
      "min": [
        -1.0725350379943848,
        -7.680132865905762,
        4.366096019744873
      ],
      "type": "VEC3"
    },
    {
      "bufferView": 2,
      "byteOffset": 2158416,
      "componentType": 5126,
      "count": 18276,
      "max": [
        1.0,
        1.0,
        1.0
      ],
      "min": [
        -1.0,
        -1.0,
        -1.0
      ],
      "type": "VEC3"
    },
    {
      "bufferView": 3,
      "byteOffset": 1292736,
      "componentType": 5126,
      "count": 18276,
      "max": [
        1.0,
        1.0,
        1.0,
        1.0
      ],
      "min": [
        -1.0,
        -1.0,
        -1.0,
        -1.0
      ],
      "type": "VEC4"
    },
    {
      "bufferView": 1,
      "byteOffset": 646368,
      "componentType": 5126,
      "count": 18276,
      "max": [
        0.9995650053024292,
        0.9995660185813904
      ],
      "min": [
        0.0004349999944679439,
        0.00043399998685345054
      ],
      "type": "VEC2"
    },
    {
      "bufferView": 0,
      "byteOffset": 1536000,
      "componentType": 5125,
      "count": 95040,
      "type": "SCALAR"
    }
  ],
  "asset": {
    "extras": {
      "author": "bth8ns (https://sketchfab.com/bth8ns)",
      "license": "CC-BY-4.0 (http://creativecommons.org/licenses/by/4.0/)",
      "source": "https://sketchfab.com/3d-models/reception-desk-f843a87bd79649f5a8d1ee55751e5ed9",
      "title": "Reception Desk"
    },
    "generator": "Sketchfab-15.13.0",
    "version": "2.0"
  },
  "bufferViews": [
    {
      "buffer": 0,
      "byteLength": 1916160,
      "name": "floatBufferViews",
      "target": 34963
    },
    {
      "buffer": 0,
      "byteLength": 792576,
      "byteOffset": 1916160,
      "byteStride": 8,
      "name": "floatBufferViews",
      "target": 34962
    },
    {
      "buffer": 0,
      "byteLength": 2377728,
      "byteOffset": 2708736,
      "byteStride": 12,
      "name": "floatBufferViews",
      "target": 34962
    },
    {
      "buffer": 0,
      "byteLength": 1585152,
      "byteOffset": 5086464,
      "byteStride": 16,
      "name": "floatBufferViews",
      "target": 34962
    }
  ],
  "buffers": [
    {
      "byteLength": 6671616,
      "uri": "scene.bin"
    }
  ],
  "images": [
    {
      "uri": "textures/227038_23_04_02_23_56_00_0_baseColor.png"
    },
    {
      "uri": "textures/227038_23_04_02_23_56_00_0_normal.png"
    },
    {
      "uri": "textures/227038_23_04_02_23_56_00_1_baseColor.png"
    },
    {
      "uri": "textures/227038_23_04_02_23_56_00_1_normal.png"
    },
    {
      "uri": "textures/227038_23_04_02_23_56_00_2_baseColor.png"
    },
    {
      "uri": "textures/227038_23_04_02_23_56_00_2_normal.png"
    }
  ],
  "materials": [
    {
      "doubleSided": true,
      "name": "227038_23_04_02_23_56_00_0",
      "normalTexture": {
        "index": 1
      },
      "pbrMetallicRoughness": {
        "baseColorTexture": {
          "index": 0
        },
        "metallicFactor": 0.0
      }
    },
    {
      "doubleSided": true,
      "name": "227038_23_04_02_23_56_00_1",
      "normalTexture": {
        "index": 3
      },
      "pbrMetallicRoughness": {
        "baseColorTexture": {
          "index": 2
        },
        "metallicFactor": 0.0
      }
    },
    {
      "doubleSided": true,
      "name": "227038_23_04_02_23_56_00_2",
      "normalTexture": {
        "index": 5
      },
      "pbrMetallicRoughness": {
        "baseColorTexture": {
          "index": 4
        },
        "metallicFactor": 0.0
      }
    }
  ],
  "meshes": [
    {
      "name": "Object_0",
      "primitives": [
        {
          "attributes": {
            "NORMAL": 1,
            "POSITION": 0,
            "TANGENT": 2,
            "TEXCOORD_0": 3
          },
          "indices": 4,
          "material": 0,
          "mode": 4
        }
      ]
    },
    {
      "name": "Object_1",
      "primitives": [
        {
          "attributes": {
            "NORMAL": 6,
            "POSITION": 5,
            "TANGENT": 7,
            "TEXCOORD_0": 8
          },
          "indices": 9,
          "material": 1,
          "mode": 4
        }
      ]
    },
    {
      "name": "Object_2",
      "primitives": [
        {
          "attributes": {
            "NORMAL": 11,
            "POSITION": 10,
            "TANGENT": 12,
            "TEXCOORD_0": 13
          },
          "indices": 14,
          "material": 2,
          "mode": 4
        }
      ]
    }
  ],
  "nodes": [
    {
      "children": [
        1
      ],
      "matrix": [
        1.0,
        0.0,
        0.0,
        0.0,
        0.0,
        2.220446049250313e-16,
        -1.0,
        0.0,
        0.0,
        1.0,
        2.220446049250313e-16,
        0.0,
        0.0,
        0.0,
        0.0,
        1.0
      ],
      "name": "Sketchfab_model"
    },
    {
      "children": [
        2,
        3,
        4
      ],
      "name": "227038_23_04_02_23_56_00.obj.cleaner.materialmerger.gles"
    },
    {
      "mesh": 0,
      "name": "Object_2"
    },
    {
      "mesh": 1,
      "name": "Object_3"
    },
    {
      "mesh": 2,
      "name": "Object_4"
    }
  ],
  "samplers": [
    {
      "magFilter": 9729,
      "minFilter": 9987,
      "wrapS": 10497,
      "wrapT": 10497
    }
  ],
  "scene": 0,
  "scenes": [
    {
      "name": "Sketchfab_Scene",
      "nodes": [
        0
      ]
    }
  ],
  "textures": [
    {
      "sampler": 0,
      "source": 0
    },
    {
      "sampler": 0,
      "source": 1
    },
    {
      "sampler": 0,
      "source": 2
    },
    {
      "sampler": 0,
      "source": 3
    },
    {
      "sampler": 0,
      "source": 4
    },
    {
      "sampler": 0,
      "source": 5
    }
  ]
}
